<svg width="225" height="81" viewBox="0 0 225 81" fill="none" xmlns="http://www.w3.org/2000/svg">
<path fill-rule="evenodd" clip-rule="evenodd" d="M0 0.708679H224.179V80.7087H0V0.708679Z" fill="black"/>
<path d="M44.3409 15.6782V63.1266H56.0461V15.6782H44.3409ZM40.1047 61.2585V16.2985H12.334V61.2585H40.1047ZM28.3994 51.9176H24.0392V25.7014H28.3994V51.9176ZM95.5265 15.6782V63.1266H107.232V15.6782H95.5265ZM63.5196 61.2585H90.046V51.9176H75.2248V16.2985H63.5196V61.2585ZM159.537 51.9176H142.976V49.1154H158.917V39.7746H126.972V37.4722H158.293V16.4262H115.949V25.7634H147.208V28.1314H115.949V49.1154H131.271V51.9176H114.705V61.2585H159.537V51.9176V51.9176ZM198.895 25.8254V44.445H209.914L210.538 16.4882H168.256V25.8254H198.895V25.8254ZM211.844 51.9176H167.012V61.2585H211.844V51.9176Z" fill="white"/>
</svg>
